<svg width="240" height="240" viewBox="0 0 240 240" fill="none" xmlns="http://www.w3.org/2000/svg">
<rect x="20.5586" y="119.332" width="18.08" height="18.08" fill="white"/>
<rect x="20.5586" y="155.492" width="18.08" height="18.08" fill="white"/>
<rect x="29.5986" y="164.532" width="18.08" height="18.08" fill="white"/>
<rect x="20.5586" y="137.412" width="18.08" height="18.08" fill="white"/>
<rect x="56.7185" y="65.0918" width="18.08" height="18.08" fill="white"/>
<rect x="38.6387" y="101.251" width="18.08" height="18.08" fill="white"/>
<rect x="38.6387" y="137.412" width="18.08" height="18.08" fill="white"/>
<rect x="38.6387" y="83.1714" width="18.08" height="18.08" fill="white"/>
<rect x="74.7986" y="155.492" width="18.08" height="18.08" transform="rotate(-90 74.7986 155.492)" fill="white"/>
<rect x="92.8787" y="137.412" width="18.08" height="18.08" transform="rotate(-90 92.8787 137.412)" fill="white"/>
<rect width="18.08" height="18.08" transform="matrix(4.37114e-08 -1 -1 -4.37114e-08 129.039 155.492)" fill="white"/>
<rect width="18.08" height="18.08" transform="matrix(4.37114e-08 -1 -1 -4.37114e-08 147.119 173.572)" fill="white"/>
<rect width="18.08" height="18.08" transform="matrix(4.37114e-08 -1 -1 -4.37114e-08 165.199 155.492)" fill="white"/>
<rect x="38.6387" y="119.332" width="18.08" height="18.08" fill="white"/>
<rect x="29.5986" y="110.292" width="18.08" height="18.08" fill="white"/>
<rect x="38.6387" y="155.492" width="18.08" height="18.08" fill="white"/>
<rect width="18.08" height="18.08" transform="matrix(-1 0 0 1 219.438 119.332)" fill="white"/>
<rect x="83.8386" y="47.0117" width="18.08" height="18.08" fill="white"/>
<rect x="74.7986" y="47.0117" width="18.08" height="18.08" fill="white"/>
<rect width="18.08" height="18.08" transform="matrix(-1 0 0 1 219.438 155.492)" fill="white"/>
<rect width="18.08" height="18.08" transform="matrix(-1 0 0 1 210.398 164.532)" fill="white"/>
<rect width="18.08" height="18.08" transform="matrix(-1 0 0 1 219.438 137.412)" fill="white"/>
<rect width="18.08" height="18.08" transform="matrix(-1 0 0 1 183.278 65.0918)" fill="white"/>
<rect width="18.08" height="18.08" transform="matrix(-1 0 0 1 201.358 101.251)" fill="white"/>
<rect width="18.08" height="18.08" transform="matrix(-1 0 0 1 201.358 137.412)" fill="white"/>
<rect width="18.08" height="18.08" transform="matrix(-1 0 0 1 201.358 83.1714)" fill="white"/>
<rect width="18.08" height="18.08" transform="matrix(-1 0 0 1 201.358 119.332)" fill="white"/>
<rect width="18.08" height="18.08" transform="matrix(-1 0 0 1 210.398 110.292)" fill="white"/>
<rect width="18.08" height="18.08" transform="matrix(-1 0 0 1 201.358 155.492)" fill="white"/>
<rect x="101.918" y="47.0117" width="18.08" height="18.08" fill="white"/>
<rect width="18.08" height="18.08" transform="matrix(-1 0 0 1 156.159 47.0117)" fill="white"/>
<rect width="18.08" height="18.08" transform="matrix(-1 0 0 1 165.199 47.0117)" fill="white"/>
<rect x="119.999" y="47.0117" width="18.08" height="18.08" fill="white"/>
</svg>
