<svg width="85" height="85" viewBox="0 0 85 85" fill="none" xmlns="http://www.w3.org/2000/svg">
<path d="M25.8917 30.3807C19.527 30.3807 18.3783 20.8229 18.3783 16.0811M25.8917 30.3807C29.3348 23.8305 35.4854 19.4681 42.5 19.4681C49.5145 19.4681 55.6652 23.8305 59.1082 30.3807M25.8917 30.3807C24.0413 33.9011 22.9729 38.0534 22.9729 42.5M25.8917 54.6193C20.6756 54.6193 18.3783 62.8222 18.3783 68.9189M25.8917 54.6193C24.0413 51.0989 22.9729 46.9466 22.9729 42.5M25.8917 54.6193C29.3348 61.1694 35.4854 65.5319 42.5 65.5319C49.5145 65.5319 55.6652 61.1694 59.1082 54.6193M22.9729 42.5H11.4865M59.1082 30.3807C65.4729 30.3807 66.6216 20.8229 66.6216 16.0811M59.1082 30.3807C60.9587 33.9011 62.027 38.0534 62.027 42.5M59.1082 54.6193C64.3243 54.6193 66.6216 62.8222 66.6216 68.9189M59.1082 54.6193C60.9587 51.0989 62.027 46.9466 62.027 42.5M62.027 42.5H73.5135M36.7567 34.4594V37.9054M48.2432 34.4594V37.9054" stroke="white" stroke-width="5" stroke-linecap="round" stroke-linejoin="round"/>
</svg>
