<svg width="65" height="65" viewBox="0 0 65 65" fill="none" xmlns="http://www.w3.org/2000/svg">
<path d="M32.5 4.875C47.7569 4.875 60.125 17.2431 60.125 32.5C60.125 47.7569 47.7569 60.125 32.5 60.125C17.2431 60.125 4.875 47.7569 4.875 32.5C4.875 17.2431 17.2431 4.875 32.5 4.875ZM31.6807 44.2412C30.3288 44.2413 29.2885 44.6231 28.5605 45.3867C27.8325 46.1504 27.4688 47.0623 27.4688 48.1211C27.4688 49.1796 27.8327 50.0909 28.5605 50.8545C29.3058 51.6181 30.3462 51.9999 31.6807 52C33.0673 52 34.1165 51.6182 34.8271 50.8545C35.555 50.0909 35.9189 49.1797 35.9189 48.1211C35.9189 47.0623 35.5551 46.1504 34.8271 45.3867C34.1165 44.6231 33.0672 44.2412 31.6807 44.2412ZM32.4346 13C28.9682 13.0001 26.2122 13.8851 24.167 15.6553C22.139 17.4083 21.125 19.8215 21.125 22.8936V23.8564H27.7549V23.2061C27.7549 21.5745 28.1367 20.3329 28.8994 19.4824C29.6621 18.6322 30.8059 18.207 32.3311 18.207C33.8736 18.207 35.0003 18.6321 35.7109 19.4824C36.4389 20.3155 36.8027 21.5221 36.8027 23.1016C36.8027 24.6462 36.4479 25.896 35.7373 26.8506C35.044 27.7878 33.9777 28.9163 32.5391 30.2354C30.8232 31.78 29.6533 33.2463 29.0293 34.6348C28.4226 36.0059 28.1191 37.6986 28.1191 39.7119V40.1543H35.0088V39.79C35.0088 38.6793 35.2088 37.5858 35.6074 36.5098C36.0234 35.4163 36.9501 34.2528 38.3887 33.0205C39.8273 31.7708 41.1016 30.3478 42.2109 28.751C43.3202 27.1543 43.875 25.1497 43.875 22.7373C43.875 19.752 42.852 17.3829 40.8066 15.6299C38.7613 13.8769 35.9706 13 32.4346 13Z" fill="#606060"/>
</svg>
