<svg width="70" height="70" viewBox="0 0 70 70" fill="none" xmlns="http://www.w3.org/2000/svg">
<path d="M35 0C15.75 0 0 15.75 0 35C0 54.25 15.75 70 35 70C54.25 70 70 54.25 70 35C70 15.75 54.425 0 35 0ZM51.1029 50.575C50.4029 51.6221 49.1779 51.975 48.125 51.275C39.9 46.2 29.575 45.1471 17.3221 47.9471C16.1029 48.3029 15.05 47.425 14.7 46.375C14.35 45.1471 15.225 44.1 16.275 43.75C29.575 40.7721 41.125 42 50.225 47.6C51.45 48.125 51.6221 49.5221 51.1029 50.575ZM55.3029 40.95C54.425 42.175 52.85 42.7 51.6221 41.825C42.175 36.05 27.825 34.3 16.8 37.8C15.4029 38.15 13.825 37.45 13.475 36.05C13.125 34.65 13.825 33.0721 15.225 32.7221C28 28.875 43.75 30.8029 54.6 37.45C55.6529 37.9779 56.175 39.725 55.3029 40.95ZM55.6529 31.15C44.45 24.5 25.725 23.8 15.05 27.1279C13.3 27.65 11.55 26.6 11.025 25.025C10.5 23.2721 11.55 21.525 13.125 20.9971C25.55 17.3221 46.025 18.0221 58.9779 25.725C60.55 26.6 61.075 28.7 60.2 30.275C59.3279 31.5029 57.225 32.0221 55.6529 31.15Z" fill="white"/>
</svg>
