<svg width="70" height="70" viewBox="0 0 70 70" fill="none" xmlns="http://www.w3.org/2000/svg">
<path d="M69.9824 17.8588C70.0049 15.709 69.7699 13.5642 69.2824 11.4702C68.3578 7.64878 66.1849 4.73162 62.9241 2.59335C61.2608 1.52518 59.3986 0.804762 57.4495 0.475496C55.942 0.215856 54.4172 0.0695888 52.8879 0.037923C52.7712 0.0291715 52.6458 0.00875146 52.5262 0H17.4591C17.0158 0.0291715 16.5754 0.0495916 16.1321 0.075846C13.9533 0.201284 11.7862 0.434656 9.73582 1.24271C5.83916 2.7888 3.0275 5.47841 1.37958 9.35239C0.819582 10.6593 0.527916 12.0508 0.320833 13.4597C0.1575 14.6033 0.0641666 15.7497 0.0291666 16.902C0.0291666 16.9953 0.00874999 17.0828 0 17.1733V52.8296C0.0291666 53.238 0.0495833 53.6552 0.0787499 54.0665C0.224583 56.444 0.527916 58.804 1.52833 60.9889C3.42416 65.1313 6.59749 67.853 10.9608 69.1599C12.1858 69.5303 13.4575 69.7054 14.7321 69.825C16.3508 69.9796 17.9696 70 19.5941 70H51.7649C53.2959 69.999 54.8254 69.9016 56.3441 69.7083C58.7416 69.3991 60.9991 68.6873 63.0378 67.3454C65.4559 65.782 67.3624 63.5436 68.5212 60.9072C69.0637 59.682 69.3758 58.3693 69.6003 57.0449C69.9299 55.0758 70.0028 53.0834 69.9999 51.0939C69.9941 40.0088 69.9999 28.9382 69.9912 17.8588H69.9824ZM51.2487 29.4983V46.161C51.2487 47.3775 51.0795 48.5735 50.537 49.6791C49.6912 51.4002 48.3204 52.4854 46.4887 53.0047C45.4679 53.2964 44.4295 53.4627 43.3679 53.5093C40.597 53.6406 38.1966 51.759 37.7008 49.0286C37.4926 47.8497 37.6758 46.635 38.2224 45.57C38.7691 44.5049 39.6491 43.648 40.7283 43.1301C41.6704 42.6634 42.6824 42.4008 43.6974 42.185C44.7999 41.9457 45.9083 41.7386 47.0049 41.4848C47.8041 41.3011 48.3379 40.8139 48.4924 39.9796C48.532 39.7945 48.5516 39.6058 48.5508 39.4166C48.5508 34.1219 48.5508 28.8273 48.5449 23.5385C48.543 23.3561 48.5176 23.1747 48.4691 22.9988C48.3524 22.5613 48.0316 22.29 47.5824 22.3162C47.1158 22.3454 46.6549 22.4183 46.197 22.5088C43.9804 22.9463 41.7637 23.3927 39.547 23.839L32.7658 25.21L28.7583 26.021C28.7116 26.0298 28.665 26.0502 28.6183 26.0589C27.8104 26.2836 27.5187 26.6511 27.4808 27.4883C27.475 27.6109 27.4808 27.7392 27.4808 27.8676C27.475 35.458 27.4808 43.0484 27.472 50.6359C27.472 51.8611 27.335 53.0747 26.845 54.2153C26.0341 56.0823 24.5991 57.2491 22.6625 57.8121C21.6416 58.1039 20.5916 58.2789 19.5271 58.3139C16.7271 58.4189 14.4083 56.5636 13.9271 53.8098C13.5187 51.4411 14.5979 48.8944 17.2929 47.7567C18.3341 47.3191 19.4221 47.0799 20.5246 46.8524C21.3616 46.6774 22.2016 46.514 23.0329 46.3361C24.15 46.0939 24.7333 45.3938 24.7829 44.2532V43.8156C24.7829 35.1809 24.7829 26.5403 24.7887 17.9055C24.7887 17.5467 24.8266 17.1762 24.9112 16.8261C25.1154 15.9948 25.7075 15.5193 26.5037 15.3151C27.2475 15.1225 28.0058 14.9883 28.7612 14.8337C30.8991 14.3962 33.037 13.9702 35.1779 13.5385L41.7987 12.1966C43.7529 11.8057 45.707 11.409 47.6612 11.021C48.3029 10.8956 48.9504 10.7643 49.5949 10.7118C50.4991 10.6389 51.1204 11.2077 51.2108 12.1179C51.2341 12.3308 51.2458 12.5496 51.2458 12.7684C51.2516 18.3401 51.2516 23.9177 51.2458 29.4895L51.2487 29.4983Z" fill="white"/>
</svg>
