<svg width="70" height="70" viewBox="0 0 70 70" fill="none" xmlns="http://www.w3.org/2000/svg">
<path d="M69.997 42.4083C69.8453 47.6466 65.2953 51.6512 60.0803 51.6512H36.222C35.697 51.6473 35.1949 51.4355 34.8259 51.062C34.4568 50.6886 34.2509 50.1841 34.2532 49.6591V24.0245C34.231 23.58 34.3454 23.1394 34.5811 22.7619C34.8168 22.3843 35.1625 22.0881 35.5716 21.9129C35.5716 21.9129 37.7591 20.4166 42.3761 20.4166C45.2123 20.4066 47.9979 21.1678 50.4349 22.6187C52.3317 23.7262 53.9775 25.216 55.2679 26.9934C56.5583 28.7709 57.4651 30.7971 57.9307 32.9437C58.7532 32.7103 59.6049 32.5908 60.4624 32.5937C63.0407 32.5937 65.5082 33.6378 67.3078 35.487C69.1074 37.3362 70.0728 39.8328 69.997 42.4083ZM31.2695 25.6549C31.9899 34.3466 32.5149 42.2712 31.2695 50.9483C31.2695 51.1533 31.1881 51.3499 31.0431 51.4948C30.8982 51.6398 30.7016 51.7212 30.4966 51.7212C30.2916 51.7212 30.095 51.6398 29.95 51.4948C29.8051 51.3499 29.7237 51.1533 29.7237 50.9483C28.5716 42.3558 29.082 34.2708 29.7237 25.6549C29.7237 25.4499 29.8051 25.2533 29.95 25.1084C30.095 24.9634 30.2916 24.882 30.4966 24.882C30.7016 24.882 30.8982 24.9634 31.0431 25.1084C31.1881 25.2533 31.2695 25.4499 31.2695 25.6549ZM26.4599 28.6504C27.2912 36.4058 27.5391 43.1929 26.4424 50.9774C26.4187 51.1735 26.324 51.3541 26.1762 51.4851C26.0285 51.6161 25.8378 51.6884 25.6403 51.6884C25.4428 51.6884 25.2522 51.6161 25.1044 51.4851C24.9566 51.3541 24.8619 51.1735 24.8382 50.9774C23.8728 43.3066 24.0916 36.3358 24.8382 28.6504C24.8382 28.4353 24.9237 28.2291 25.0757 28.077C25.2278 27.9249 25.434 27.8395 25.6491 27.8395C25.8641 27.8395 26.0704 27.9249 26.2224 28.077C26.3745 28.2291 26.4599 28.4353 26.4599 28.6504ZM21.6095 27.9008C22.397 35.8516 22.747 42.9828 21.6095 50.9541C21.6095 51.1599 21.5277 51.3572 21.3822 51.5027C21.2368 51.6482 21.0394 51.7299 20.8337 51.7299C20.6279 51.7299 20.4306 51.6482 20.2851 51.5027C20.1396 51.3572 20.0578 51.1599 20.0578 50.9541C18.9495 43.1083 19.3082 35.7583 20.0578 27.9008C20.0578 27.695 20.1396 27.4977 20.2851 27.3522C20.4306 27.2067 20.6279 27.1249 20.8337 27.1249C21.0394 27.1249 21.2368 27.2067 21.3822 27.3522C21.5277 27.4977 21.6095 27.695 21.6095 27.9008ZM16.8057 30.1466C17.7536 37.0633 17.7457 44.0775 16.7824 50.992C16.7654 51.1899 16.6747 51.3743 16.5284 51.5086C16.382 51.6429 16.1906 51.7174 15.992 51.7174C15.7933 51.7174 15.6019 51.6429 15.4556 51.5086C15.3092 51.3743 15.2186 51.1899 15.2016 50.992C14.3097 44.0722 14.3097 37.0665 15.2016 30.1466C15.2016 29.9339 15.2861 29.7299 15.4365 29.5794C15.5869 29.429 15.7909 29.3445 16.0037 29.3445C16.2164 29.3445 16.4204 29.429 16.5708 29.5794C16.7212 29.7299 16.8057 29.9339 16.8057 30.1466ZM11.9349 35.3062C13.1628 40.7458 12.5999 45.5145 11.8503 51.0212C11.8503 51.22 11.7713 51.4106 11.6308 51.5512C11.4902 51.6918 11.2995 51.7708 11.1007 51.7708C10.9019 51.7708 10.7113 51.6918 10.5707 51.5512C10.4301 51.4106 10.3512 51.22 10.3512 51.0212C9.73866 45.602 9.19032 40.6699 10.3512 35.3033C10.3634 35.1016 10.4522 34.9121 10.5993 34.7736C10.7465 34.6351 10.9409 34.558 11.143 34.558C11.3451 34.558 11.5396 34.6351 11.6867 34.7736C11.8339 34.9121 11.9227 35.1045 11.9349 35.3062ZM7.10782 34.5099C8.23949 40.0428 7.86616 44.7416 7.07866 50.2949C7.00282 51.1116 5.57949 51.1203 5.50366 50.2949C4.79199 44.8174 4.49157 39.9699 5.47449 34.5099C5.50326 34.3139 5.6016 34.1347 5.75154 34.0052C5.90148 33.8757 6.09301 33.8044 6.29116 33.8044C6.4893 33.8044 6.68083 33.8757 6.83077 34.0052C6.98071 34.1347 7.07905 34.3139 7.10782 34.5099ZM2.24282 37.167C3.40949 40.8653 2.99241 43.852 2.16699 47.5853C2.16699 47.7841 2.08802 47.9748 1.94744 48.1154C1.80687 48.256 1.61621 48.3349 1.41741 48.3349C1.21861 48.3349 1.02795 48.256 0.887371 48.1154C0.746797 47.9748 0.667824 47.7841 0.667824 47.5853C-0.0350928 43.9045 -0.364676 40.842 0.60074 37.167C0.621739 36.9639 0.717297 36.7757 0.868945 36.639C1.02059 36.5022 1.21756 36.4265 1.42178 36.4265C1.626 36.4265 1.82297 36.5022 1.97462 36.639C2.12627 36.7757 2.22182 36.9639 2.24282 37.167Z" fill="white"/>
</svg>
