<svg width="24" height="24" viewBox="0 0 24 24" fill="none" xmlns="http://www.w3.org/2000/svg">
<rect x="1" y="12" width="2" height="2" fill="white"/>
<rect x="1" y="16" width="2" height="2" fill="white"/>
<rect x="2" y="17" width="2" height="2" fill="white"/>
<rect x="1" y="14" width="2" height="2" fill="white"/>
<rect x="5" y="6" width="2" height="2" fill="white"/>
<rect x="3" y="10" width="2" height="2" fill="white"/>
<rect x="3" y="14" width="2" height="2" fill="white"/>
<rect x="3" y="8" width="2" height="2" fill="white"/>
<rect x="7" y="16" width="2" height="2" transform="rotate(-90 7 16)" fill="white"/>
<rect x="9" y="14" width="2" height="2" transform="rotate(-90 9 14)" fill="white"/>
<rect width="2" height="2" transform="matrix(4.37114e-08 -1 -1 -4.37114e-08 13 16)" fill="white"/>
<rect width="2" height="2" transform="matrix(4.37114e-08 -1 -1 -4.37114e-08 15 18)" fill="white"/>
<rect width="2" height="2" transform="matrix(4.37114e-08 -1 -1 -4.37114e-08 17 16)" fill="white"/>
<rect x="3" y="12" width="2" height="2" fill="white"/>
<rect x="2" y="11" width="2" height="2" fill="white"/>
<rect x="3" y="16" width="2" height="2" fill="white"/>
<rect width="2" height="2" transform="matrix(-1 0 0 1 23 12)" fill="white"/>
<rect x="8" y="4" width="2" height="2" fill="white"/>
<rect x="7" y="4" width="2" height="2" fill="white"/>
<rect width="2" height="2" transform="matrix(-1 0 0 1 23 16)" fill="white"/>
<rect width="2" height="2" transform="matrix(-1 0 0 1 22 17)" fill="white"/>
<rect width="2" height="2" transform="matrix(-1 0 0 1 23 14)" fill="white"/>
<rect width="2" height="2" transform="matrix(-1 0 0 1 19 6)" fill="white"/>
<rect width="2" height="2" transform="matrix(-1 0 0 1 21 10)" fill="white"/>
<rect width="2" height="2" transform="matrix(-1 0 0 1 21 14)" fill="white"/>
<rect width="2" height="2" transform="matrix(-1 0 0 1 21 8)" fill="white"/>
<rect width="2" height="2" transform="matrix(-1 0 0 1 21 12)" fill="white"/>
<rect width="2" height="2" transform="matrix(-1 0 0 1 22 11)" fill="white"/>
<rect width="2" height="2" transform="matrix(-1 0 0 1 21 16)" fill="white"/>
<rect x="10" y="4" width="2" height="2" fill="white"/>
<rect width="2" height="2" transform="matrix(-1 0 0 1 16 4)" fill="white"/>
<rect width="2" height="2" transform="matrix(-1 0 0 1 17 4)" fill="white"/>
<rect x="12" y="4" width="2" height="2" fill="white"/>
</svg>
